<?xml version="1.0" standalone="no"?><!DOCTYPE svg PUBLIC "-//W3C//DTD SVG 1.1//EN" "http://www.w3.org/Graphics/SVG/1.1/DTD/svg11.dtd"><svg t="1715077463087" class="icon" viewBox="0 0 1024 1024" version="1.1" xmlns="http://www.w3.org/2000/svg" p-id="3255" xmlns:xlink="http://www.w3.org/1999/xlink" width="128" height="128"><path d="M512 512H46.68416c48.09216 312.4224 203.19744 468.6336 465.31584 468.6336-1.22368 0-1.22368-156.2112 0-468.6336z" fill="#5459F6" p-id="3256"></path><path d="M512 30.72c265.8048 0 481.28 215.4752 481.28 481.28 0 260.6592-207.22176 472.92416-465.91488 481.03936L527.36 993.28h-30.72v-0.24064C243.0464 985.088 38.912 780.95872 30.96064 527.36512L30.72 527.36v-30.72h0.24064C39.07072 237.94688 251.33568 30.72 512 30.72z m-276.06016 496.64H61.696C69.632 763.99616 260.01408 954.38336 496.64 962.304v-174.24384c-140.4672-7.69024-253.0048-120.23296-260.70016-260.69504z m726.36416 0h-174.24384c-7.69536 140.4672-120.23296 253.0048-260.69504 260.70016v174.24384c236.6208-7.93088 427.008-198.31808 434.93888-434.944zM496.64 527.36H266.71104c7.61856 123.4944 106.43456 222.3104 229.93408 229.92896L496.64 527.36z m260.64896 0H527.36v229.92896c123.4944-7.61856 222.3104-106.43456 229.92896-229.92896zM61.696 496.64h174.24384C243.63008 356.1728 356.1728 243.63008 496.64 235.93984V61.696C260.01408 69.62176 69.62176 260.01408 61.696 496.64z m205.01504 0H496.64V266.71104C373.1456 274.3296 274.3296 373.1456 266.71616 496.64512zM527.36 266.71616V496.64h229.92896C749.6704 373.1456 650.8544 274.3296 527.36 266.71616z m0-205.01504v174.24384c140.4672 7.69536 253.00992 120.23296 260.70016 260.70016h174.24384C954.37824 260.01408 763.99104 69.632 527.36 61.696z" fill="#000000" p-id="3257"></path></svg>